<svg id="svg5" width="38.521mm" height="2.4797mm" version="1.1" viewBox="0 0 38.521 2.4797" xmlns="http://www.w3.org/2000/svg">
 <g id="layer1">
  <g id="g666">
   <g id="text328" stroke-width=".26458" aria-label="ENGINEERING">
    <path id="path521" d="m36.045 1.251q0-0.2794 0.09843-0.508 0.1016-0.23178 0.27622-0.39688t0.40958-0.254q0.23494-0.092075 0.50482-0.092075 0.32385 0 0.60325 0.13335 0.2794 0.13335 0.4699 0.41592l-0.5207 0.26987q-0.20955-0.2921-0.54928-0.2921-0.1524 0-0.2794 0.05715-0.12382 0.053975-0.2159 0.1524-0.0889 0.09525-0.1397 0.2286-0.0508 0.13335-0.0508 0.28892 0 0.1524 0.05398 0.28575 0.05398 0.13018 0.14605 0.2286 0.09208 0.09525 0.21272 0.1524 0.12065 0.053975 0.25718 0.053975 0.11112 0 0.2032-0.03175 0.09208-0.03175 0.16192-0.085725 0.07303-0.05715 0.11748-0.13018 0.04762-0.0762 0.06032-0.1651v-0.003175h-0.49848v-0.45085h1.1557v0.1016q0 0.2921-0.08572 0.52705-0.08255 0.23495-0.2413 0.40005-0.15558 0.1651-0.37782 0.254t-0.50165 0.0889q-0.26352 0-0.4953-0.0889-0.23178-0.092075-0.40322-0.254t-0.27305-0.38735q-0.09843-0.2286-0.09843-0.49848zm-2.6067 1.1874v-2.3939h0.4826l1.2033 1.5208-0.022225-1.5208h0.58102v2.3939h-0.47942l-1.197-1.5081 0.0127 1.5081zm-1.0287 0v-2.3939h0.58738v2.3939zm-1.3652-2.3939q0.20638 0 0.381 0.04445 0.17462 0.041275 0.30162 0.13335t0.20002 0.23812q0.07303 0.14288 0.07303 0.34607 0 0.22543-0.11748 0.39687-0.1143 0.16828-0.35878 0.2794l0.67945 0.95568h-0.70485l-0.52388-0.87948h-0.0635v0.87948h-0.58738v-2.3939zm-0.13335 1.0795h0.09525q0.18415 0 0.29528-0.066675 0.11112-0.066675 0.11112-0.23178 0-0.16192-0.10478-0.22542-0.10478-0.066675-0.2921-0.066675h-0.10478zm-1.0096-1.0795v0.48895h-0.86995v0.4064h0.8255v0.47307h-0.8255v0.53658h0.88265v0.48895h-1.47v-2.3939zm-1.8796 0v0.48895h-0.86995v0.4064h0.8255v0.47307h-0.8255v0.53658h0.88265v0.48895h-1.47v-2.3939zm-4.1465 2.3939v-2.3939h0.4826l1.2033 1.5208-0.022225-1.5208h0.58102v2.3939h-0.47942l-1.197-1.5081 0.0127 1.5081zm-1.0287 0v-2.3939h0.58738v2.3939zm-2.8416-1.1874q0-0.2794 0.09842-0.508 0.1016-0.23178 0.27622-0.39688t0.40958-0.254q0.23496-0.092075 0.50483-0.092075 0.32385 0 0.60325 0.13335 0.2794 0.13335 0.4699 0.41592l-0.5207 0.26987q-0.20955-0.2921-0.54928-0.2921-0.1524 0-0.2794 0.05715-0.12382 0.053975-0.2159 0.1524-0.0889 0.09525-0.1397 0.2286-0.0508 0.13335-0.0508 0.28892 0 0.1524 0.05398 0.28575 0.05398 0.13018 0.14605 0.2286 0.09208 0.09525 0.21272 0.1524 0.12065 0.053975 0.25718 0.053975 0.11112 0 0.2032-0.03175 0.09207-0.03175 0.16192-0.085725 0.07302-0.05715 0.11748-0.13018 0.04763-0.0762 0.06032-0.1651v-0.003175h-0.49848v-0.45085h1.1557v0.1016q0 0.2921-0.08573 0.52705-0.08255 0.23495-0.2413 0.40005-0.15558 0.1651-0.37782 0.254t-0.50165 0.0889q-0.26352 0-0.4953-0.0889-0.23178-0.092075-0.40322-0.254t-0.27305-0.38735q-0.09842-0.2286-0.09842-0.49848zm-2.6067 1.1874v-2.3939h0.4826l1.2033 1.5208-0.022225-1.5208h0.58102v2.3939h-0.47942l-1.197-1.5081 0.0127 1.5081zm-0.42227-2.3939v0.48895h-0.86995v0.4064h0.8255v0.47307h-0.8255v0.53658h0.88265v0.48895h-1.47v-2.3939zm-5.4285 2.3939v-2.3939h0.4826l1.2033 1.5208-0.02223-1.5208h0.58102v2.3939h-0.47942l-1.197-1.5081 0.0127 1.5081zm-1.0287 0v-2.3939h0.58737v2.3939zm-2.9369-1.2001q0-0.2667 0.1016-0.49212 0.1016-0.22542 0.27622-0.39052 0.1778-0.1651 0.41275-0.25717 0.23495-0.095249 0.49847-0.095249t0.4953 0.095249q0.23495 0.092074 0.40957 0.25717 0.17462 0.1651 0.27622 0.3937 0.1016 0.22542 0.1016 0.4953 0 0.27305-0.1016 0.50165-0.1016 0.22542-0.2794 0.39052-0.17462 0.16192-0.40957 0.254-0.23495 0.0889-0.50165 0.0889-0.25717 0-0.49212-0.088899-0.23177-0.0889-0.4064-0.25082-0.17462-0.1651-0.2794-0.3937-0.1016-0.2286-0.1016-0.508zm0.60642 0.00318q0 0.1524 0.053975 0.28257 0.053975 0.127 0.14605 0.21907 0.095249 0.092074 0.2159 0.14287 0.12382 0.0508 0.26035 0.0508 0.14605 0 0.26987-0.0508 0.127-0.053975 0.21907-0.14605 0.092074-0.092074 0.14287-0.21907 0.053975-0.127 0.053975-0.27622 0-0.14922-0.053975-0.27622-0.0508-0.127-0.14287-0.21908-0.0889-0.095249-0.2159-0.14922-0.12382-0.053975-0.26987-0.053975-0.14287 0-0.26987 0.053975-0.12382 0.053975-0.2159 0.14922-0.088899 0.092074-0.14287 0.21907-0.0508 0.127-0.0508 0.27305zm-2.7527 0.01587q0-0.25717 0.095249-0.48577 0.098425-0.2286 0.2667-0.40005 0.16827-0.17145 0.40005-0.26987 0.23177-0.1016 0.49847-0.1016 0.30797 0 0.60325 0.14287l0.0127 0.65405q-0.28257-0.25082-0.5842-0.25082-0.13335 0-0.25717 0.0508-0.12382 0.0508-0.21907 0.14605-0.095249 0.092074-0.1524 0.22225-0.05715 0.127-0.05715 0.2794 0 0.14605 0.053975 0.27305 0.053975 0.12382 0.14605 0.21907 0.095249 0.092074 0.22225 0.14605 0.127 0.053975 0.26987 0.053975 0.17145 0 0.30162-0.05715 0.13335-0.060325 0.27622-0.1905l-0.0127 0.65087q-0.13335 0.073024-0.31115 0.10477-0.17462 0.034925-0.32385 0.034925-0.26035 0-0.48577-0.095249-0.22225-0.09525-0.38735-0.26035-0.1651-0.1651-0.26035-0.38735t-0.095249-0.47942zm-1.7494-1.2128h1.6351v0.54292h-0.51752v1.851h-0.60007v-1.851h-0.51752zm-0.84454 2.3939v-2.3939h0.58737v2.3939zm-2.8416-1.1874q0-0.2794 0.098424-0.508 0.1016-0.23177 0.27622-0.39687 0.17462-0.1651 0.40957-0.254 0.23495-0.092074 0.50482-0.092074 0.32385 0 0.60325 0.13335 0.2794 0.13335 0.4699 0.41592l-0.5207 0.26987q-0.20955-0.2921-0.54927-0.2921-0.1524 0-0.2794 0.05715-0.12382 0.053975-0.2159 0.1524-0.088899 0.095249-0.1397 0.2286-0.0508 0.13335-0.0508 0.28892 0 0.1524 0.053975 0.28575 0.053975 0.13017 0.14605 0.2286 0.092074 0.095249 0.21272 0.1524 0.12065 0.053975 0.25717 0.053975 0.11112 0 0.2032-0.03175 0.092074-0.03175 0.16192-0.085724 0.073025-0.05715 0.11747-0.13017 0.047625-0.076199 0.060325-0.1651v-0.00317h-0.49847v-0.45085h1.1557v0.1016q0 0.2921-0.085724 0.52705-0.082549 0.23495-0.2413 0.40005-0.15557 0.1651-0.37782 0.254-0.22225 0.088899-0.50165 0.088899-0.26352 0-0.4953-0.088899-0.23177-0.092074-0.40322-0.254-0.17145-0.16192-0.27305-0.38735-0.098424-0.2286-0.098424-0.49847z"/>
   </g>
  </g>
 </g>
</svg>
